<?xml version="1.0" standalone="no"?>
<!DOCTYPE svg PUBLIC "-//W3C//DTD SVG 20010904//EN"
 "http://www.w3.org/TR/2001/REC-SVG-20010904/DTD/svg10.dtd">
<svg version="1.0" xmlns="http://www.w3.org/2000/svg"
 width="295.000000pt" height="95.000000pt" viewBox="0 0 295.000000 95.000000"
 preserveAspectRatio="xMidYMid meet">

<g transform="translate(0.000000,95.000000) scale(0.100000,-0.100000)"
fill="#000000" stroke="none">
<path d="M1015 760 c-97 -64 -122 -85 -131 -112 -11 -32 -14 -34 -160 -75
l-148 -41 -29 24 c-25 21 -39 24 -115 24 -48 1 -110 3 -138 6 -63 7 -76 -7
-42 -44 13 -15 32 -40 42 -55 26 -42 74 -67 127 -67 31 0 51 -6 60 -16 10 -12
25 -15 56 -11 l42 4 16 -53 c11 -38 21 -54 32 -54 21 0 326 81 335 89 4 4 1
31 -7 61 -8 30 -15 56 -15 57 0 0 13 6 30 11 16 6 38 25 48 41 10 17 34 41 53
53 19 13 41 39 50 58 18 38 35 180 22 179 -4 0 -62 -36 -128 -79z m90 10 c-11
-10 -51 -41 -90 -67 -58 -40 -70 -53 -70 -76 0 -32 18 -37 25 -7 4 18 113 100
133 100 4 0 7 -9 7 -19 0 -27 -43 -76 -80 -91 -21 -9 -30 -19 -30 -36 0 -23
-25 -44 -53 -44 -14 0 -37 67 -37 109 0 15 27 39 98 85 99 66 132 81 97 46z
m-291 -262 c-26 -40 -47 -74 -48 -75 -1 -1 -39 17 -86 39 l-85 40 115 34 c161
46 158 47 104 -38z m104 -30 c11 -43 20 -78 19 -79 -33 -11 -303 -86 -305 -84
-5 4 -51 170 -48 173 2 2 45 -17 95 -42 l91 -46 31 42 c17 24 42 62 56 86 14
24 29 40 33 35 4 -4 17 -43 28 -85z m-428 72 c37 -1 46 -10 63 -68 l16 -53
-26 -10 c-21 -8 -30 -6 -47 10 -14 12 -41 20 -79 23 -47 4 -64 10 -85 32 l-27
28 90 -7 c61 -5 93 -11 98 -21 11 -20 27 -17 27 5 0 31 -21 39 -125 46 -55 4
-104 11 -110 17 -7 7 20 8 85 4 52 -3 106 -6 120 -6z"/>
<path d="M1220 565 l0 -85 50 0 c55 0 69 17 18 22 l-33 3 -3 73 c-2 55 -6 72
-17 72 -12 0 -15 -17 -15 -85z"/>
<path d="M1365 625 c-52 -51 -16 -145 55 -145 44 0 80 39 80 85 0 46 -36 85
-80 85 -19 0 -40 -9 -55 -25z m89 -8 c12 -9 18 -26 18 -52 0 -26 -6 -43 -18
-52 -41 -30 -84 -3 -84 52 0 55 43 82 84 52z"/>
<path d="M1554 626 c-75 -63 10 -182 97 -136 12 7 19 21 19 40 0 25 -4 30 -25
30 -14 0 -25 -4 -25 -10 0 -5 5 -10 10 -10 6 0 10 -9 10 -20 0 -15 -7 -20 -25
-20 -31 0 -65 33 -65 63 0 12 7 33 16 46 14 20 22 22 55 17 38 -6 54 6 23 18
-31 12 -63 6 -90 -18z"/>
<path d="M1719 621 c-17 -18 -29 -40 -29 -56 0 -35 50 -85 85 -85 35 0 85 50
85 85 0 35 -50 85 -85 85 -16 0 -38 -12 -56 -29z m95 -13 c31 -44 7 -108 -39
-108 -27 0 -55 33 -55 65 0 32 28 65 55 65 13 0 31 -10 39 -22z"/>
<path d="M1930 565 c0 -68 3 -85 15 -85 10 0 15 15 17 57 l3 57 43 -57 c23
-31 47 -57 52 -57 6 0 10 37 10 85 0 50 -4 85 -10 85 -5 0 -10 -25 -10 -55 0
-30 -3 -55 -7 -55 -5 1 -26 25 -48 55 -56 77 -65 73 -65 -30z"/>
<path d="M2130 569 c-31 -80 -32 -115 -3 -71 11 15 25 22 48 22 23 0 37 -7 48
-22 28 -43 28 -11 -2 68 -16 46 -35 80 -44 82 -11 2 -24 -20 -47 -79z m70 -16
c0 -7 -11 -13 -25 -13 -29 0 -28 -2 -14 40 l12 33 13 -24 c7 -13 13 -30 14
-36z"/>
<path d="M2280 565 c0 -95 17 -117 22 -27 l3 57 25 -44 c14 -24 29 -45 35 -45
5 -1 21 19 35 44 l25 45 3 -57 c5 -90 22 -68 22 27 0 103 -13 110 -53 29 -15
-30 -31 -53 -35 -50 -4 3 -19 27 -32 55 -36 77 -50 68 -50 -34z"/>
<path d="M2490 565 l0 -85 50 0 c28 0 50 5 50 10 0 6 -16 10 -35 10 -31 0 -35
3 -35 25 0 21 5 25 30 25 17 0 30 5 30 10 0 6 -13 10 -30 10 -27 0 -30 3 -30
30 0 28 3 30 35 30 19 0 35 5 35 10 0 6 -22 10 -50 10 l-50 0 0 -85z"/>
<path d="M1223 364 c-4 -11 1 -22 12 -30 22 -16 39 -18 30 -4 -3 6 -13 10 -21
10 -23 0 -16 28 9 33 l22 4 -23 2 c-13 0 -25 -6 -29 -15z"/>
<path d="M1292 333 l-2 -53 33 1 c29 2 29 2 5 6 -24 4 -27 9 -31 51 l-3 47 -2
-52z"/>
<path d="M1376 364 c-21 -21 -20 -47 2 -67 24 -22 46 -22 63 0 13 15 12 15 -9
2 -28 -18 -57 -2 -57 31 0 33 29 49 57 31 21 -13 22 -13 9 2 -17 21 -45 22
-65 1z"/>
<path d="M1486 364 c-34 -33 -7 -85 42 -83 l27 1 -29 7 c-57 12 -60 67 -5 82
23 7 23 7 2 8 -12 1 -29 -6 -37 -15z"/>
<path d="M1600 374 c0 -3 7 -12 15 -20 16 -17 18 -14 9 10 -6 15 -24 23 -24
10z"/>
<path d="M1672 330 c1 -52 1 -53 7 -15 l6 39 33 -39 32 -40 -1 55 c-2 52 -2
53 -8 15 l-6 -39 -32 39 -32 40 1 -55z"/>
<path d="M1803 330 c0 -30 2 -45 4 -32 3 17 11 22 33 22 22 0 30 -5 33 -22 2
-13 4 2 4 32 0 30 -2 43 -4 28 -4 -23 -9 -28 -33 -28 -24 0 -29 5 -33 28 -2
15 -4 2 -4 -28z"/>
<path d="M1910 330 c0 -48 1 -50 28 -49 23 2 24 2 5 6 -13 2 -23 11 -23 18 0
7 10 16 23 18 l22 4 -22 2 c-31 1 -31 38 0 44 19 4 18 4 -5 6 -27 1 -28 -1
-28 -49z"/>
<path d="M1991 328 c1 -29 4 -43 6 -30 5 27 19 28 35 2 7 -11 17 -20 22 -20 5
0 1 9 -9 20 -14 16 -15 22 -5 35 18 21 5 45 -25 45 -24 0 -25 -3 -24 -52z m47
25 c-5 -26 -38 -29 -38 -4 0 15 6 21 21 21 14 0 19 -5 17 -17z"/>
<path d="M2080 330 c0 -48 1 -50 28 -49 23 2 24 2 5 6 -13 2 -23 11 -23 18 0
7 10 16 23 18 l22 4 -22 2 c-31 1 -31 38 0 44 19 4 18 4 -5 6 -27 1 -28 -1
-28 -49z"/>
<path d="M1586 334 c-9 -23 -8 -24 24 -24 20 0 30 -5 30 -15 0 -8 4 -15 10
-15 6 0 6 9 -1 23 -8 18 -17 23 -35 19 -19 -3 -23 -1 -18 12 3 9 4 16 1 16 -3
0 -8 -7 -11 -16z"/>
<path d="M1240 290 c-23 -7 -23 -8 -3 -9 12 -1 25 4 28 9 3 6 5 10 3 9 -2 -1
-14 -5 -28 -9z"/>
</g>
</svg>
